<svg xmlns="http://www.w3.org/2000/svg" width="18" height="18" viewBox="0 0 24 24" fill="none" stroke="currentColor" stroke-width="1.5" stroke-linecap="round" stroke-linejoin="round" class="svg-icon vault"><path d="M21 19.2L21 4.8C21 3.47452 20.6046 3 19.5 3L4.5 3C3.39543 3 3 3.47452 3 4.8L3 19.2C3 20.5255 3.39543 21 4.5 21L19.5 21C20.6046 21 21 20.5255 21 19.2Z"></path><path d="M14.9675 10.56C15.0601 11.1841 14.9535 11.8216 14.6629 12.3817C14.3722 12.9418 13.9124 13.396 13.3488 13.6797C12.7851 13.9634 12.1464 14.0621 11.5234 13.9619C10.9004 13.8616 10.3249 13.5675 9.87868 13.1213C9.43249 12.6751 9.13835 12.0996 9.0381 11.4766C8.93786 10.8536 9.0366 10.2149 9.3203 9.65123C9.60399 9.08759 10.0582 8.62776 10.6183 8.33713C11.1784 8.04651 11.8159 7.93989 12.4401 8.03245C13.0767 8.12687 13.6662 8.42355 14.1213 8.87868C14.5765 9.33381 14.8731 9.92326 14.9675 10.56Z"></path><path d="M12 14L12 17"></path><path d="M21 7L22.5 7"></path><path d="M21 16L22.5 16"></path></svg>
