<svg xmlns="http://www.w3.org/2000/svg" width="18" height="18" viewBox="0 0 24 24" fill="none" stroke="currentColor" stroke-width="1.5" stroke-linecap="round" stroke-linejoin="round" class="svg-icon links-going-out"><path d="M8.70467 12C8.21657 11.6404 7.81269 11.1817 7.52044 10.6549C7.22819 10.1281 7.0544 9.54553 7.01086 8.94677C6.96732 8.348 7.05504 7.74701 7.26808 7.18456C7.48112 6.62212 7.81449 6.11138 8.24558 5.68697L10.7961 3.17516C11.5978 2.41258 12.6716 1.99062 13.7861 2.00016C14.9007 2.0097 15.9668 2.44997 16.755 3.22615C17.5431 4.00234 17.9902 5.05233 17.9998 6.14998C18.0095 7.24763 17.5811 8.30511 16.8067 9.09467L15.9014 10"></path><path d="M11.2953 8C11.7834 8.35957 12.1873 8.81831 12.4796 9.34512C12.7718 9.87192 12.9456 10.4545 12.9891 11.0532C13.0327 11.652 12.945 12.253 12.7319 12.8154C12.5189 13.3779 12.1855 13.8886 11.7544 14.313L9.20392 16.8248C8.40221 17.5874 7.32844 18.0094 6.21389 17.9998C5.09933 17.9903 4.03318 17.55 3.24504 16.7738C2.4569 15.9977 2.00985 14.9477 2.00016 13.85C1.99047 12.7524 2.41893 11.6949 3.19326 10.9053L4.09859 10"></path><path d="M18 21L21 18L18 15"></path><path d="M14 18H21"></path></svg>
