<svg xmlns="http://www.w3.org/2000/svg" width="18" height="18" viewBox="0 0 24 24" fill="none" stroke="currentColor" stroke-width="1.5" stroke-linecap="round" stroke-linejoin="round" class="svg-icon sync-small"><path d="M12 21C16.9707 21 21 16.9707 21 12C21 7.0293 16.9707 3 12 3C7.0293 3 3 7.0293 3 12C3 16.9707 7.0293 21 12 21Z"/><path d="M12 21C16.9707 21 21 16.9707 21 12C21 7.0293 16.9707 3 12 3C7.0293 3 3 7.0293 3 12C3 16.9707 7.0293 21 12 21Z"/><path d="M7.6394 11.0114C8.08785 9.01426 9.87182 7.52222 12.0044 7.52222C14 7.52222 15 9 16.0121 10.0057M8.00579 14.0042C9 15 10 16.4695 12.0044 16.4695C14.1282 16.4695 15.9062 14.9897 16.3638 13.0049"/><path d="M16.5 8.5V10.5H14.5"/><path d="M8 16L8 14L10 14"/></svg>
