<svg xmlns="http://www.w3.org/2000/svg" width="18" height="18" viewBox="0 0 24 24" fill="none" stroke="currentColor" stroke-width="1.5" stroke-linecap="round" stroke-linejoin="round" class="svg-icon sheets-in-box"><path d="M19 16V22"></path><path d="M16 19H22"></path><path d="M20.7297 13.0005C20.7297 12.4701 20.519 11.9613 20.1439 11.5863C19.7689 11.2112 19.2602 11.0005 18.7297 11.0005H4.72974C4.1993 11.0005 3.6906 11.2112 3.31552 11.5863C2.94045 11.9613 2.72974 12.4701 2.72974 13.0005L2.72974 19.9886C2.72974 20.519 2.94045 21.0277 3.31552 21.4028C3.6906 21.7779 4.1993 21.9886 4.72974 21.9886H13"></path><path d="M21 8C21 8 21 7 20 7H4C3.00199 7 3 7.99347 3 7.99347"></path><path d="M21 4C21 4 21.0066 3 20 3L4 3C3 3 3 4 3 4"></path></svg>
