<svg fill="none" viewBox="0 0 204 28" xmlns="http://www.w3.org/2000/svg"><g fill="#a079ff"><path d="m6.92 14.6c.64-.2 1.67-.49 2.86-.56-.71-1.8-.89-3.37-.75-4.77.16-1.62.73-2.97 1.29-4.11l.34-.7c.16-.3.3-.6.44-.9.22-.48.4-.91.48-1.32.08-.4.08-.74-.02-1.08s-.3-.7-.7-1.1a1.67 1.67 0 0 0 -1.54.37l-5.16 4.64c-.29.25-.48.6-.53.99l-.45 2.94a14.57 14.57 0 0 1 3.74 5.59zm-3.95-4.25c-.02.1-.06.2-.1.3l-2.72 6.08c-.28.62-.15 1.35.32 1.84l4.29 4.43a8.66 8.66 0 0 0 .87-8.65c-.76-1.8-1.9-3.2-2.66-3.99z"/><path d="m5.75 23.5a57.83 57.83 0 0 1 7.7 1.43c1.13.33 2.29-.57 2.45-1.73.12-.85.34-1.81.76-2.69h-.01a9.25 9.25 0 0 0 -2.52-4 5.52 5.52 0 0 0 -2.9-1.31c-1.6-.23-3.07.2-4 .47a9.65 9.65 0 0 1 -1.48 7.84z"/><path d="m17.37 19.31c.93-1.4 1.59-2.49 1.94-3.08a.84.84 0 0 0 -.07-.93 18.12 18.12 0 0 1 -2.13-3.5c-.57-1.38-.66-3.52-.66-4.57 0-.4-.13-.78-.37-1.1l-3.34-4.22c0 .19-.04.38-.07.56a7.47 7.47 0 0 1 -.56 1.57l-.47.95-.32.65a10.93 10.93 0 0 0 -1.18 3.74 9.17 9.17 0 0 0 .85 4.67l.4.05c1.15.16 2.36.6 3.47 1.56.95.83 1.81 2 2.51 3.65z"/></g><path d="m163.06 4.77h2.28v17.23h-2.28v-7.9h-13v7.9h-2.3v-17.23h2.3v7.32h13zm11.88 15.63c2.43 0 4.15-1.26 4.73-3l1.75.9c-.74 2.12-3.1 3.96-6.48 3.96-4.15 0-7.13-2.68-7.13-6.52 0-3.72 2.9-6.53 7.13-6.53 4.1 0 6.67 2.73 6.67 6.24v.84h-11.76c.27 2.5 2.33 4.1 5.1 4.1zm-.1-9.37c-2.42 0-4.41 1.35-4.89 3.6h9.55c-.14-1.7-1.85-3.6-4.65-3.6zm11.16-6.26v17.23h-2.16v-17.23zm5.28 15.03v6.52h-2.16v-16.87h2.16v2.2c.93-1.34 2.78-2.44 5.28-2.44 4.22 0 6.86 2.88 6.86 6.53 0 3.62-2.64 6.52-6.86 6.52-2.5 0-4.35-1.1-5.28-2.47zm-.1-4.16v.17c0 2.85 2.47 4.6 5.11 4.6 2.8 0 5.06-1.77 5.06-4.67 0-2.93-2.25-4.7-5.06-4.7-2.64 0-5.11 1.77-5.11 4.6zm-153.45-11.14c5.88 0 10.17 3.77 10.17 8.88 0 5.12-4.3 8.88-10.17 8.88-5.9 0-10.18-3.76-10.18-8.88 0-5.1 4.27-8.88 10.18-8.88zm0 3.1c-3.87 0-6.55 2.3-6.55 5.78s2.68 5.79 6.55 5.79c3.86 0 6.55-2.3 6.55-5.79 0-3.48-2.69-5.78-6.55-5.78zm15.37 12.89v1.51h-3.36v-17.23h3.36v6.14c.87-.96 2.52-1.77 4.73-1.77 4.32 0 6.86 2.97 6.86 6.55 0 3.6-2.54 6.57-6.86 6.57-2.2 0-3.86-.81-4.73-1.77zm-.14-4.87v.16c0 2.14 1.87 3.75 4.27 3.75 2.28 0 4.25-1.37 4.25-3.84 0-2.45-1.97-3.82-4.25-3.82-2.4 0-4.27 1.59-4.27 3.75zm12.22 4 1.92-2.2a7.17 7.17 0 0 0 5.5 2.23c1.84 0 3.07-.41 3.07-1.35 0-.96-1.16-.96-4.06-1.32-3.17-.4-5.69-.96-5.69-3.64 0-2.5 2.4-4.2 6.24-4.2 3 0 5.35 1.03 6.53 2.37l-1.92 2.04c-1.06-1.15-2.74-1.82-4.78-1.82-1.87 0-2.78.5-2.78 1.25 0 .79.89.88 3.62 1.22 3.32.38 6.17.86 6.17 3.77 0 2.88-2.95 4.3-6.55 4.3-3.05 0-5.83-.97-7.27-2.65zm15.38-11.73v-3.12h3.44v3.12h-3.43zm3.4 1.49v12.62h-3.35v-12.62h3.36zm13.45 11.11c-.86.96-2.52 1.77-4.73 1.77-4.32 0-6.86-2.97-6.86-6.57 0-3.58 2.54-6.55 6.86-6.55 2.21 0 3.87.81 4.73 1.77v-6.14h3.36v17.23h-3.36zm.14-4.87c0-2.16-1.87-3.75-4.27-3.75-2.28 0-4.25 1.37-4.25 3.82 0 2.47 1.97 3.84 4.25 3.84 2.4 0 4.27-1.61 4.27-3.75zm5.77-7.73v-3.12h3.43v3.12zm3.4 1.49v12.62h-3.35v-12.62h3.36zm7.11 12.88c-3.02 0-5.3-1.36-5.3-3.9 0-2.34 1.99-3.63 5.01-3.94l5.26-.56v-.1c0-1.05-.94-1.91-3.14-1.91-1.85 0-3.36.81-3.8 1.92l-2.9-.99c.8-2.2 3.58-3.64 6.82-3.64 3.96 0 6.26 1.6 6.26 4.68v4.96c0 .7.31 1.01 1.75.7v2.52c-2.76.55-4.13-.34-4.65-1.56a7.8 7.8 0 0 1 -5.3 1.82zm4.97-5.13v-.87l-4.75.53c-1.49.17-2.26.53-2.26 1.47 0 .96.94 1.44 2.5 1.44 2.06 0 4.51-.9 4.51-2.57zm6.41 4.87v-12.62h3.36v1.58a6.04 6.04 0 0 1 4.6-1.82c3.42 0 5.5 2.32 5.5 5.83v7.03h-3.36v-6.24c0-2.16-1.08-3.6-3.24-3.6-2.25 0-3.5 1.4-3.5 3.65v6.19z" fill="#fff"/></svg>