<?xml version="1.0" encoding="UTF-8" standalone="no"?>
<svg
   fill="none"
   viewBox="0 0 217.81947 24.976824"
   version="1.1"
   id="svg3"
   sodipodi:docname="obsidian-lockup-help.svg"
   inkscape:version="1.3 (0e150ed6c4, 2023-07-21)"
   width="217.81947"
   height="24.976824"
   xmlns:inkscape="http://www.inkscape.org/namespaces/inkscape"
   xmlns:sodipodi="http://sodipodi.sourceforge.net/DTD/sodipodi-0.dtd"
   xmlns="http://www.w3.org/2000/svg"
   xmlns:svg="http://www.w3.org/2000/svg">
  <defs
     id="defs3" />
  <sodipodi:namedview
     id="namedview3"
     pagecolor="#ffffff"
     bordercolor="#000000"
     borderopacity="0.25"
     inkscape:showpageshadow="2"
     inkscape:pageopacity="0.0"
     inkscape:pagecheckerboard="0"
     inkscape:deskcolor="#d1d1d1"
     inkscape:zoom="8.1823093"
     inkscape:cx="173.78957"
     inkscape:cy="-0.67218188"
     inkscape:window-width="1920"
     inkscape:window-height="1080"
     inkscape:window-x="0"
     inkscape:window-y="0"
     inkscape:window-maximized="1"
     inkscape:current-layer="g3" />
  <g
     id="g3"
     style="fill:#ffffff;fill-opacity:1">
    <path
       d="m 205.41948,14.580507 a 12,12 0 0 1 2.8,-0.6 10,10 0 0 1 0.5,-8.8 l 0.4,-0.7 a 32.9,32.9 0 0 0 0.9,-2.3 v -1 c -0.1,-0.4 -0.3,-0.7 -0.7,-1.1 -0.6,-0.2 -1.1,0 -1.6,0.3 l -5.1,4.7 c -0.3,0.2 -0.5,0.6 -0.6,1 l -0.4,3 a 14.6,14.6 0 0 1 3.7,5.5 z m -4,-4.2 -0.1,0.3 -2.8,6 c -0.2,0.7 -0.1,1.4 0.4,1.9 l 4.3,4.4 a 8.7,8.7 0 0 0 0.8,-8.7 c -0.7,-1.8 -1.9,-3.2 -2.6,-4 z"
       id="path1-5"
       style="fill:#a079ff;fill-opacity:1" />
    <path
       d="m 204.21948,23.480507 h 0.2 a 23.8,23.8 0 0 1 7.4,1.4 c 1.2,0.4 2.3,-0.5 2.5,-1.7 a 7,7 0 0 1 0.8,-2.7 c -0.8,-2 -1.6,-3.2 -2.6,-4 a 5,5 0 0 0 -2.9,-1.3 c -1.6,-0.2 -3,0.2 -4,0.5 0.6,2.3 0.4,5 -1.4,7.8 z"
       id="path2-6"
       style="fill:#a079ff;fill-opacity:1" />
    <path
       d="m 215.81948,19.280507 2,-3 c 0,-0.4 0,-0.7 -0.2,-1 -0.79562,-1.0881 -1.46649,-2.262128 -2,-3.5 -0.7,-1.4 -0.7,-3.5 -0.8,-4.6 0,-0.4 0,-0.7 -0.3,-1 l -3.4,-4.3 v 0.6 l -0.7,1.5 -0.5,1 -0.3,0.6 c -0.62802,1.183045 -1.03469,2.470839 -1.2,3.8 0,1.3 0,2.8 0.9,4.7 h 0.4 c 1.1,0.2 2.3,0.6 3.5,1.6 1,0.8 1.8,2 2.5,3.6 z"
       id="path3-2"
       style="fill:#a079ff;fill-opacity:1"
       sodipodi:nodetypes="ccccccccccccccccc" />
    <path
       d="m 10.1,4.4805061 c 6,0 10.2,3.8000001 10.2,8.8999999 0,5.1 -4.3,8.9 -10.2,8.9 -5.9,0 -10.1,-3.8 -10.1,-9 C 0,8.2805062 4.2,4.4805061 10.1,4.4805061 Z m 0,3.1 c -3.8,0 -6.5,2.3 -6.5,5.7999999 0,3.5 2.7,5.8 6.5,5.8 3.8,0 6.6,-2.3 6.6,-5.8 C 16.7,9.8805061 14,7.5805061 10.1,7.5805061 Z M 25.5,20.480506 v 1.5 H 22.1 V 4.7805061 h 3.4 v 6.0999999 c 0.9,-0.9999999 2.5,-1.7999999 4.7,-1.7999999 4.3,0 6.9,2.9999999 6.9,6.5999999 0,3.6 -2.6,6.6 -6.9,6.6 -2.2,0 -3.8,-0.9 -4.7,-1.8 z m -0.1,-4.9 v 0.2 c 0,2.1 1.8,3.7 4.2,3.7 2.3,0 4.3,-1.3 4.3,-3.8 0,-2.5 -2,-3.8 -4.3,-3.8 -2.4,0 -4.2,1.6 -4.2,3.7 z m 12.2,4 1.9,-2.2 c 1.432781,1.488471 3.435937,2.289733 5.5,2.2 1.8,0 3,-0.4 3,-1.3 0,-1 -1,-1 -4,-1.3 -3.2,-0.4 -5.7,-1 -5.7,-3.7 0,-2.5 2.4,-4.1999998 6.3,-4.1999998 3,0 5.3,0.9999998 6.5,2.3999998 l -2,2 c -1.248562,-1.226903 -2.951299,-1.879015 -4.7,-1.8 -1.9,0 -2.8,0.5 -2.8,1.3 0,0.8 0.9,0.9 3.6,1.2 3.3,0.4 6.2,0.9 6.2,3.8 0,2.8 -3,4.3 -6.6,4.3 -3,0 -5.8,-1 -7.2,-2.7 z M 53,7.8805062 V 4.7805061 h 3.4 v 3 z m 3.4,1.5 V 21.980506 H 53 V 9.3805062 Z M 69.8,20.480506 c -0.9,1 -2.5,1.8 -4.7,1.8 -4.3,0 -6.9,-3 -6.9,-6.6 0,-3.6 2.6,-6.5999998 6.9,-6.5999998 2.2,0 3.8,0.9 4.7,1.7999998 V 4.7805061 h 3.399995 V 21.980506 H 69.8 Z m 0.2,-4.9 c 0,-2.1 -2,-3.7 -4.3,-3.7 -2.3,0 -4.3,1.3 -4.3,3.8 0,2.5 2,3.8 4.3,3.8 2.4,0 4.3,-1.6 4.3,-3.7 z m 5.699995,-7.6999999 v -3.1 h 3.5 v 3 z m 3.4,1.5 V 21.980506 h -3.3 V 9.3805062 Z m 7.1,12.8999999 c -3,0 -5.3,-1.4 -5.3,-4 0,-2.3 2,-3.6 5,-3.9 l 5.3,-0.5 v -0.1 c 0,-1 -1,-2 -3.1,-2 -1.9,0 -3.4,0.9 -3.8,2 l -3,-1 c 0.9,-2.2 3.6,-3.6999999 6.9,-3.6999999 4,0 6.2,1.5999999 6.2,4.6999999 v 5 c 0,0.7 0.4,1 1.8,0.7 v 2.5 c -2.8,0.6 -4.1,-0.3 -4.7,-1.6 -1.45289,1.297585 -3.35363,1.978983 -5.3,1.9 z m 5,-5.2 v -0.8 l -4.8,0.5 c -1.4,0.2 -2.2,0.5 -2.2,1.5 0,1 1,1.4 2.5,1.4 2,0 4.5,-0.9 4.5,-2.6 z m 6.4,4.9 V 9.3805062 H 101 v 1.5999998 c 1.18597,-1.2693994 2.86391,-1.9624621 4.6,-1.8999998 3.4,0 5.5,2.3999998 5.5,5.8999998 v 7 h -3.4 v -6.2 c 0,-2.2 -1,-3.6 -3.2,-3.6 -2.3,0 -3.5,1.4 -3.5,3.6 v 6.2 z"
       id="path3"
       style="fill:#ffffff;fill-opacity:1"
       sodipodi:nodetypes="ssssssssssccccccssscsssssscccscsscccscssccccccccccccsssccccccsssssscccccccccccsccssccsssccccsccssscccccsccssscc" />
    <path
       id="text1-9-8-2-8"
       style="font-style:normal;font-variant:normal;font-weight:normal;font-stretch:normal;font-size:23.2095px;font-family:'Noto Sans Arabic';-inkscape-font-specification:'Noto Sans Arabic, Normal';font-variant-ligatures:normal;font-variant-caps:normal;font-variant-numeric:normal;font-variant-east-asian:normal;display:inline;fill:#ffffff;fill-opacity:1;stroke-width:1.93419"
       d="m 154.62022,5.2675781 0.46289,12.6953129 c 0.0309,0.928379 0.1704,1.687417 0.41797,2.27539 0.24756,0.587974 0.69583,1.020315 1.3457,1.298828 0.66534,0.278514 1.61763,0.417969 2.85547,0.417969 0.71176,0 1.33134,-0.06176 1.85742,-0.185547 0.52608,-0.123784 0.97435,-0.370836 1.3457,-0.742187 0.17333,-0.173325 0.332,-0.394345 0.48047,-0.648438 0.0959,0.265155 0.22071,0.491077 0.37891,0.671875 0.32493,0.355879 0.70347,0.594966 1.13672,0.71875 0.44871,0.123784 0.86708,0.185547 1.2539,0.185547 0.78913,0 1.42268,-0.0538 1.90235,-0.162109 0.47966,-0.123784 0.8821,-0.35686 1.20703,-0.697266 0.13903,-0.145652 0.27484,-0.32611 0.4082,-0.53125 0.058,0.131513 0.12172,0.256297 0.19531,0.369141 0.24757,0.340405 0.58824,0.595422 1.02149,0.765625 0.43324,0.170203 0.98911,0.255859 1.66992,0.255859 0.55703,0 1.08299,-0.06973 1.57813,-0.208984 0.49513,-0.15473 0.92146,-0.417711 1.27734,-0.789063 0.26013,-0.270967 0.46748,-0.622107 0.6289,-1.044922 0.05,0.117263 0.0981,0.235806 0.16016,0.34961 0.20115,0.324932 0.4482,0.617818 0.74219,0.880859 0.30946,0.247568 0.66606,0.448786 1.06836,0.603516 0.41777,0.139257 0.88993,0.208984 1.41601,0.208984 0.44872,0 0.85116,-0.03787 1.20704,-0.115234 0.37135,-0.06189 0.726,-0.209312 1.0664,-0.441406 0.32139,-0.219127 0.63577,-0.558247 0.94336,-0.998047 0.95888,0.601612 1.77149,0.997561 2.42188,1.160156 0.75817,0.185676 1.37775,0.279297 1.85742,0.279297 0.54155,0 1.05955,-0.117515 1.55468,-0.34961 0.51061,-0.247567 0.92898,-0.642039 1.25391,-1.183593 0.32493,-0.557028 0.48828,-1.298184 0.48828,-2.226563 0,-0.526081 -0.10158,-1.053997 -0.30273,-1.580078 -0.18568,-0.541554 -0.44866,-1.035658 -0.78906,-1.484375 -0.34041,-0.448717 -0.73488,-0.805319 -1.1836,-1.068359 -0.44871,-0.278514 -0.93681,-0.417969 -1.46289,-0.417969 -0.43324,0 -0.87355,0.09362 -1.32226,0.279297 -0.43325,0.185676 -0.87355,0.534313 -1.32227,1.044922 -0.43324,0.510608 -0.8755,1.259729 -1.32422,2.25 -0.32493,0.72723 -0.62578,1.308944 -0.9043,1.742187 -0.27851,0.433244 -0.56538,0.742059 -0.85937,0.927735 -0.29399,0.185675 -0.6566,0.279296 -1.08984,0.279296 -0.6344,0 -1.14638,-0.09362 -1.53321,-0.279296 -0.38682,-0.185676 -0.69564,-0.502456 -0.92773,-0.951172 -0.21662,-0.46419 -0.38598,-1.099702 -0.50977,-1.904297 -0.10831,-0.804595 -0.20989,-1.832626 -0.30273,-3.085938 l -1.69336,0.115235 c 0.0774,0.634392 0.13116,1.200177 0.16211,1.695312 0.0464,0.479663 0.0763,0.919968 0.0918,1.322266 0.0155,0.386824 0.0234,0.759355 0.0234,1.115234 0,0.665338 -0.17732,1.159442 -0.5332,1.484375 -0.34041,0.324933 -0.89823,0.488281 -1.67188,0.488281 -0.60344,0 -1.05968,-0.05575 -1.36914,-0.164062 -0.29398,-0.108311 -0.4952,-0.253777 -0.60351,-0.439453 -0.0928,-0.201149 -0.13867,-0.410332 -0.13867,-0.626953 0,-0.263041 0.0239,-0.587785 0.0703,-0.97461 l 0.18555,-1.207031 c 0.0619,-0.402298 0.11569,-0.742971 0.16211,-1.021484 l -1.76368,-0.324219 c -0.1702,1.129528 -0.33355,2.018103 -0.48828,2.667969 -0.15473,0.649865 -0.33205,1.122029 -0.5332,1.416015 -0.18568,0.293987 -0.42476,0.479276 -0.71875,0.556641 -0.29399,0.07737 -0.67448,0.117187 -1.13867,0.117187 -0.51061,0 -0.92101,-0.04779 -1.23047,-0.140625 -0.29399,-0.108311 -0.50122,-0.253777 -0.625,-0.439453 -0.12379,-0.185676 -0.1875,-0.402823 -0.1875,-0.65039 0,-0.448717 0.0637,-0.944774 0.1875,-1.486328 0.12378,-0.541555 0.23138,-1.005754 0.32422,-1.392579 l -1.74024,-0.486328 c -0.24757,1.114055 -0.46471,1.98069 -0.65039,2.59961 -0.18567,0.618919 -0.38689,1.075154 -0.60351,1.36914 -0.20115,0.278514 -0.45617,0.455838 -0.76563,0.533203 -0.30946,0.06189 -0.71189,0.09375 -1.20703,0.09375 -0.88196,0 -1.53145,-0.07769 -1.94922,-0.232422 -0.4023,-0.154729 -0.66528,-0.433639 -0.78906,-0.835937 -0.10831,-0.417771 -0.17804,-1.005496 -0.20899,-1.763672 L 156.52256,5.2675781 Z M 122.7999,6.5449219 c -0.32492,0 -0.60383,0.1155615 -0.83592,0.3476562 -0.21662,0.2320948 -0.32422,0.5030403 -0.32422,0.8125 0,0.3094597 0.1076,0.5804053 0.32422,0.8125 0.23209,0.2166218 0.511,0.3242188 0.83592,0.3242188 0.30946,0 0.57246,-0.107597 0.78908,-0.3242188 0.23209,-0.2320947 0.34764,-0.5030403 0.34764,-0.8125 0,-0.3094597 -0.11555,-0.5804052 -0.34764,-0.8125 -0.21662,-0.2320947 -0.47962,-0.3476562 -0.78908,-0.3476562 z m 3.17969,0 c -0.32493,0 -0.60384,0.1155615 -0.83594,0.3476562 -0.21662,0.2320948 -0.3242,0.5030403 -0.3242,0.8125 0,0.3094597 0.10758,0.5804053 0.3242,0.8125 0.2321,0.2166218 0.51101,0.3242188 0.83594,0.3242188 0.30946,0 0.57244,-0.107597 0.78906,-0.3242188 0.2321,-0.2320947 0.34766,-0.5030403 0.34766,-0.8125 0,-0.3094597 -0.11556,-0.5804052 -0.34766,-0.8125 -0.21662,-0.2320947 -0.4796,-0.3476562 -0.78906,-0.3476562 z m -2.25195,4.3632811 -1.20703,1.4375 0.66992,0.601563 c -1.01308,0.953704 -1.75834,1.869948 -2.20117,2.742187 -0.51061,0.990271 -0.76562,1.817084 -0.76562,2.482422 0,0.835541 0.16936,1.524852 0.50977,2.066406 0.35588,0.541555 0.836,0.943991 1.43945,1.207031 0.60345,0.263041 1.28478,0.394532 2.04297,0.394532 0.78911,0 1.44657,-0.131491 1.97265,-0.394532 0.52608,-0.278513 0.93453,-0.627151 1.22851,-1.044921 0.29399,-0.433244 0.50318,-0.873549 0.62695,-1.322266 0.12379,-0.448717 0.18555,-0.851153 0.18555,-1.207031 0,-0.912906 -0.20723,-1.779541 -0.625,-2.59961 -0.41776,-0.820068 -0.96762,-1.595035 -1.64844,-2.322265 -0.68081,-0.727231 -1.42392,-1.406624 -2.22851,-2.041016 z m 11.90625,0.04492 -1.60156,1.044922 c 0.41777,0.618919 0.80427,1.230538 1.16015,1.833984 0.37135,0.587974 0.6961,1.151805 0.97461,1.69336 0.27852,0.526081 0.49566,1.006209 0.65039,1.439453 0.17021,0.433243 0.25586,0.805774 0.25586,1.115234 0,0.402298 -0.1076,0.756947 -0.32422,1.066406 -0.20115,0.293987 -0.53385,0.519099 -0.99804,0.673828 -0.44872,0.15473 -1.06034,0.232422 -1.83399,0.232422 -0.7427,0 -1.39219,-0.09362 -1.94922,-0.279296 -0.55702,-0.185676 -0.99132,-0.37893 -1.30078,-0.580079 l -0.92773,1.601563 c 0.32493,0.247568 0.70347,0.464715 1.13672,0.65039 0.43324,0.170203 0.9054,0.301694 1.41601,0.394532 0.52608,0.09284 1.06797,0.138672 1.625,0.138672 1.28426,0 2.26646,-0.185289 2.94727,-0.556641 0.61183,-0.326308 1.0469,-0.735177 1.32422,-1.216797 0.0966,0.188491 0.20215,0.365626 0.32422,0.519531 0.35587,0.433244 0.77229,0.750023 1.25195,0.951172 0.49513,0.185676 0.99916,0.279297 1.50976,0.279297 1.60919,0 3.03966,-0.08566 4.29297,-0.255859 1.26879,-0.185676 2.43823,-0.440693 3.50586,-0.765625 1.08311,-0.324933 2.143,-0.695511 3.17969,-1.113282 L 151.60264,18.125 c -0.44872,0.201149 -0.82125,0.364497 -1.11524,0.488281 -0.27851,0.123784 -0.5176,0.223417 -0.71875,0.300781 -0.18567,0.06189 -0.35503,0.117644 -0.50976,0.164063 -0.15473,0.04642 -0.32604,0.100217 -0.51172,0.162109 -0.26304,0.01547 -0.56389,-0.02435 -0.9043,-0.117187 -0.32493,-0.09284 -0.65764,-0.224329 -0.99804,-0.394531 -0.34041,-0.170203 -0.65118,-0.385397 -0.92969,-0.648438 -0.27851,-0.263041 -0.50167,-0.55788 -0.67188,-0.882812 -0.17019,-0.340406 -0.25586,-0.710984 -0.25586,-1.113282 0,-0.526081 0.12353,-0.976304 0.3711,-1.347656 0.24757,-0.371351 0.58825,-0.656273 1.02148,-0.857422 0.43325,-0.216622 0.92931,-0.326172 1.48634,-0.326172 0.27851,0 0.58733,0.02389 0.92772,0.07031 0.34041,0.04642 0.66516,0.108182 0.97462,0.185547 l 0.39454,-1.78711 c -0.37136,-0.123783 -0.75786,-0.217405 -1.16016,-0.279296 -0.4023,-0.06189 -0.78084,-0.0918 -1.13672,-0.0918 -0.92838,0 -1.75714,0.185289 -2.48437,0.55664 -0.71176,0.371352 -1.27559,0.889349 -1.69336,1.554688 -0.4023,0.665338 -0.60352,1.440305 -0.60352,2.322265 0,0.711758 0.13946,1.329388 0.41796,1.855469 0.27852,0.510609 0.60327,0.936938 0.97462,1.277344 0.37135,0.324933 0.69609,0.56402 0.97461,0.71875 -0.0928,0 -0.26415,0.01593 -0.51172,0.04687 -0.24757,0.01547 -0.64204,0.0314 -1.18359,0.04687 -0.52609,0.01547 -1.27521,0.02344 -2.25,0.02344 v 0.002 c -0.008,-1.25e-4 -0.015,-0.002 -0.0234,-0.002 -0.24757,0 -0.51852,-0.03982 -0.8125,-0.117187 -0.29399,-0.09284 -0.58086,-0.302021 -0.85938,-0.626953 -0.26304,-0.324933 -0.50213,-0.827001 -0.71875,-1.507813 -0.18567,-0.618919 -0.43468,-1.276372 -0.74414,-1.972656 -0.30946,-0.711757 -0.688,-1.470795 -1.13672,-2.275391 -0.44871,-0.820068 -0.97467,-1.686703 -1.57812,-2.599609 z m -11.32421,2.949219 c 0.5312,0.45677 0.98294,0.889368 1.27538,1.27539 0.4023,0.495136 0.66528,0.959335 0.78906,1.392578 0.13927,0.417771 0.20899,0.820207 0.20899,1.207032 0,0.433243 -0.0936,0.811786 -0.2793,1.136718 -0.1702,0.324933 -0.43318,0.57995 -0.78906,0.765626 -0.34041,0.170202 -0.77275,0.255859 -1.29883,0.255859 -0.61892,0 -1.13887,-0.161396 -1.55664,-0.486328 -0.4023,-0.324933 -0.60352,-0.813026 -0.60352,-1.462891 0,-0.41777 0.10955,-0.88197 0.32618,-1.392578 0.21662,-0.526081 0.5334,-1.060008 0.95117,-1.601562 0.28468,-0.379575 0.62003,-0.739009 0.97657,-1.089844 z m 62.0371,1.53125 c 0.37135,0 0.71999,0.147419 1.04492,0.441406 0.34041,0.293987 0.61932,0.664565 0.83594,1.113281 0.21662,0.448717 0.32422,0.896987 0.32422,1.345703 0,0.30946 -0.0618,0.58837 -0.18555,0.835938 -0.12378,0.247568 -0.31704,0.440821 -0.58008,0.580078 -0.26304,0.123784 -0.61964,0.185547 -1.06836,0.185547 -0.40229,0 -0.91233,-0.08566 -1.53125,-0.255859 -0.50293,-0.154749 -1.07318,-0.434014 -1.68359,-0.792969 0.0892,-0.184468 0.17649,-0.347786 0.26758,-0.552735 0.35588,-0.789122 0.67266,-1.392776 0.95117,-1.810546 0.27851,-0.417771 0.54946,-0.702693 0.8125,-0.857422 0.26304,-0.15473 0.53399,-0.232422 0.8125,-0.232422 z" />
  </g>
</svg>
